<svg width="18" height="18" viewBox="0 0 18 18" fill="none" xmlns="http://www.w3.org/2000/svg">
<path d="M3.25 0H14.75C16.483 0 17.8992 1.35645 17.9949 3.06558L18 3.25V14.75C18 16.483 16.6435 17.8992 14.9344 17.9949L14.75 18H3.25C1.51697 18 0.10075 16.6435 0.00514007 14.9344L0 14.75V3.25C0 1.51697 1.35645 0.10075 3.06558 0.00514007L3.25 0ZM5.32501 11.5H1.5V14.75C1.5 15.6682 2.20711 16.4212 3.10647 16.4942L3.25 16.5H14.75C15.6682 16.5 16.4212 15.7929 16.4942 14.8935L16.5 14.75V11.5H12.675C12.3404 13.1483 10.9247 14.404 9.2003 14.4947L9 14.5C7.253 14.5 5.78498 13.3053 5.36837 11.6884L5.32501 11.5ZM14.75 1.5H3.25C2.33183 1.5 1.57881 2.20711 1.5058 3.10647L1.5 3.25V10H6C6.3797 10 6.69349 10.2822 6.74315 10.6482L6.75 10.75C6.75 11.9926 7.7574 13 9 13C10.1909 13 11.1656 12.0748 11.2448 10.904L11.25 10.75C11.25 10.3703 11.5322 10.0565 11.8982 10.0068L12 10H16.5V3.25C16.5 2.33183 15.7929 1.57881 14.8935 1.5058L14.75 1.5ZM3.75 6.5H14.25C14.6642 6.5 15 6.83579 15 7.25C15 7.6297 14.7178 7.9435 14.3518 7.9932L14.25 8H3.75C3.33579 8 3 7.6642 3 7.25C3 6.8703 3.28215 6.55651 3.64823 6.50685L3.75 6.5H14.25H3.75ZM3.75 3.5H14.25C14.6642 3.5 15 3.83579 15 4.25C15 4.6297 14.7178 4.94349 14.3518 4.99315L14.25 5H3.75C3.33579 5 3 4.66421 3 4.25C3 3.8703 3.28215 3.55651 3.64823 3.50685L3.75 3.5H14.25H3.75Z" fill="#212121"/>
</svg>
